<svg xmlns="http://www.w3.org/2000/svg" width="31.413" height="33.335" viewBox="0 0 31.413 33.335">
    <defs>
        <clipPath id="clip-path">
            <path id="Path_12047" d="M26.106 8.637a1.088 1.088 0 0 1-.221-.023 1.179 1.179 0 0 1-.214-.064 1.14 1.14 0 0 1-.194-.1 1.053 1.053 0 0 1-.177-.15 1.142 1.142 0 0 1-.332-.8 1.1 1.1 0 0 1 .023-.222 1.135 1.135 0 0 1 .063-.213 1.159 1.159 0 0 1 .1-.194A1.126 1.126 0 0 1 25.3 6.7a1.06 1.06 0 0 1 .172-.142 1.139 1.139 0 0 1 .194-.1 1.179 1.179 0 0 1 .214-.064 1.114 1.114 0 0 1 .442 0 1.133 1.133 0 0 1 .212.064 1.121 1.121 0 0 1 .368.246 1.049 1.049 0 0 1 .14.172 1.117 1.117 0 0 1 .1.194 1.018 1.018 0 0 1 .064.213 1.1 1.1 0 0 1 .023.222 1.14 1.14 0 0 1-.332.8 1.053 1.053 0 0 1-.172.141 1.091 1.091 0 0 1-.2.1 1.113 1.113 0 0 1-.211.064 1.1 1.1 0 0 1-.208.027z" class="cls-1" transform="translate(-24.972 -6.37)"/>
        </clipPath>
        <clipPath id="clip-path-2">
            <path id="Path_12048" d="M13.688 29.947h5.979a3.754 3.754 0 0 1 3.748 3.376H9.94a3.755 3.755 0 0 1 3.748-3.376zm3-5.174a10.072 10.072 0 0 0 1.132-.064l.338 3.041H15.2l.338-3.043a9.85 9.85 0 0 0 1.149.066zm-7.48-8.816L8.249 7.39h8.429a1.1 1.1 0 1 0 0-2.2H8l-.212-1.933h17.781l-1.4 12.7a7.536 7.536 0 0 1-14.96 0zM3.765 11.8l-.444-3.972h2.744l.9 8.084a5.1 5.1 0 0 1-1.765-1.14A5 5 0 0 1 3.765 11.8zm26.27-3.972l-.444 3.972a5 5 0 0 1-1.44 2.971 5.08 5.08 0 0 1-1.745 1.129l.894-8.072zm-4.394 25.494a5.959 5.959 0 0 0-5.245-5.53L20 24.2a9.688 9.688 0 0 0 5.888-5.876 7.33 7.33 0 0 0 3.84-2.006 7.2 7.2 0 0 0 2.072-4.275l.58-5.193A1.092 1.092 0 0 0 32.1 6a1.115 1.115 0 0 0-.827-.366h-3.732l.37-3.353a1.091 1.091 0 0 0-.277-.853 1.115 1.115 0 0 0-.826-.365H6.548a1.115 1.115 0 0 0-.827.366 1.091 1.091 0 0 0-.276.854l.374 3.352H2.081A1.116 1.116 0 0 0 1.254 6a1.093 1.093 0 0 0-.276.854l.58 5.193a7.192 7.192 0 0 0 2.072 4.278 7.323 7.323 0 0 0 3.858 2.009A9.689 9.689 0 0 0 13.36 24.2l-.4 3.6a5.959 5.959 0 0 0-5.245 5.53z" class="cls-1" transform="translate(-.972 -1.059)"/>
        </clipPath>
        <clipPath id="clip-path-3">
            <path id="Rectangle_6021" d="M0 0H17.757V1.806H0z" class="cls-1"/>
        </clipPath>
        <style>
            .cls-1{fill:#17a554}
        </style>
    </defs>
    <g id="Group_16215" transform="translate(-1.11 -2.189)">
        <g id="Group_16202" transform="translate(20.047 5.114)">
            <g id="Group_16201" clip-path="url(#clip-path)">
                <path id="Rectangle_6018" d="M0 0H8.288V8.288H0z" class="cls-1" transform="translate(-3.01 -3.011)"/>
            </g>
        </g>
        <g id="Group_16204" transform="translate(.78 .85)">
            <g id="Group_16203" clip-path="url(#clip-path-2)" transform="translate(.33 1.339)">
                <path id="Rectangle_6019" d="M0 0H37.31V38.1H0z" class="cls-1" transform="translate(-2.949 -2.919)"/>
            </g>
        </g>
        <g id="Group_16206" transform="translate(7.95 33.717)">
            <g id="Group_16205" clip-path="url(#clip-path-3)">
                <path id="Rectangle_6020" d="M0 0H23.778V7.827H0z" class="cls-1" transform="translate(-3.01 -3.01)"/>
            </g>
        </g>
    </g>
</svg>
