<svg xmlns="http://www.w3.org/2000/svg" width="30.75" height="45" viewBox="0 0 30.75 45">
    <defs>
        <clipPath id="clip-path">
            <path id="crop" d="M0 0H30.75V45H0z" class="cls-1"/>
        </clipPath>
        <clipPath id="clip-path-2">
            <path id="Path_12049" d="M28.4 19.881a2.511 2.511 0 0 1-1.242 1.354 5.993 5.993 0 0 0-2.93 4.051 2.538 2.538 0 0 1-.912 1.642 2.209 2.209 0 0 1-1.233.388 3.867 3.867 0 0 1-.568-.022 5.987 5.987 0 0 0-4.751 1.554 2.537 2.537 0 0 1-1.7.792 2.6 2.6 0 0 1-1.779-.864 6.085 6.085 0 0 0-4.248-1.708q-.246 0-.494.019a3.475 3.475 0 0 1-.353.011 2.248 2.248 0 0 1-1.311-.389 2.519 2.519 0 0 1-.904-1.609 5.981 5.981 0 0 0-2.87-3.967A2.494 2.494 0 0 1 1.894 19.8a2.52 2.52 0 0 1 .211-1.832 5.982 5.982 0 0 0 .011-4.9 2.494 2.494 0 0 1-.194-1.792 2.519 2.519 0 0 1 1.247-1.357 5.983 5.983 0 0 0 2.887-3.955 2.493 2.493 0 0 1 .9-1.565 2.52 2.52 0 0 1 1.808-.365 5.984 5.984 0 0 0 4.66-1.5 2.5 2.5 0 0 1 1.645-.739 2.416 2.416 0 0 1 1.537.646 6.1 6.1 0 0 0 4.73 1.389 2.585 2.585 0 0 1 1.915.352 2.519 2.519 0 0 1 .9 1.6A5.985 5.985 0 0 0 27.1 9.817a2.537 2.537 0 0 1 1.279 1.376 2.513 2.513 0 0 1-.208 1.825 5.992 5.992 0 0 0 .01 5 2.537 2.537 0 0 1 .219 1.863zm-7.174 22.327l-5.507-4.522a.9.9 0 0 0-1.138 0l-5.508 4.522V28.86a4.288 4.288 0 0 1 2.963 1.2 4.314 4.314 0 0 0 3.029 1.373 4.259 4.259 0 0 0 2.925-1.273 4.2 4.2 0 0 1 3.236-1.094zM29.8 17.261a4.2 4.2 0 0 1 0-3.5 4.233 4.233 0 0 0 .281-3.119 4.26 4.26 0 0 0-2.112-2.392 4.2 4.2 0 0 1-2.062-2.833A4.235 4.235 0 0 0 24.3 2.729a4.3 4.3 0 0 0-3.212-.678 4.3 4.3 0 0 1-3.335-.987A4.143 4.143 0 0 0 15.065 0a4.217 4.217 0 0 0-2.842 1.2 4.186 4.186 0 0 1-3.261 1.053 4.242 4.242 0 0 0-3.064.7A4.216 4.216 0 0 0 4.3 5.588a4.189 4.189 0 0 1-2.014 2.771 4.238 4.238 0 0 0-2.069 2.363 4.218 4.218 0 0 0 .26 3.078 4.19 4.19 0 0 1 0 3.427 4.241 4.241 0 0 0-.286 3.128 4.223 4.223 0 0 0 2.017 2.333 4.189 4.189 0 0 1 2.012 2.774 4.235 4.235 0 0 0 1.608 2.7 3.753 3.753 0 0 0 1.453.636V44.1a.9.9 0 0 0 1.465.692l6.4-5.258 6.4 5.258a.9.9 0 0 0 1.465-.692V28.99a3.743 3.743 0 0 0 1.355-.613 4.257 4.257 0 0 0 1.618-2.748 4.2 4.2 0 0 1 2.057-2.836 4.238 4.238 0 0 0 2.061-2.358 4.261 4.261 0 0 0-.302-3.174z" class="cls-1"/>
        </clipPath>
        <clipPath id="clip-path-3">
            <path id="Path_12050" d="M15.149 24.719a9 9 0 1 1 9-9 9.014 9.014 0 0 1-9 9zm0-19.8a10.8 10.8 0 1 0 10.8 10.8 10.809 10.809 0 0 0-10.8-10.8z" class="cls-1"/>
        </clipPath>
        <clipPath id="clip-path-4">
            <path id="Path_12051" d="M11.762 8.995a7.493 7.493 0 0 0-4.138 6.721.9.9 0 1 0 1.793 0A5.708 5.708 0 0 1 12.57 10.6a.9.9 0 1 0-.808-1.6z" class="cls-1"/>
        </clipPath>
        <clipPath id="clip-path-5">
            <path id="Path_12052" d="M17.334 8.513a7.531 7.531 0 0 0-2.185-.323.9.9 0 0 0 0 1.793 5.736 5.736 0 0 1 1.665.245.9.9 0 0 0 .52-1.716z" class="cls-1"/>
        </clipPath>
        <style>
            .cls-1{fill:#17a554}
        </style>
    </defs>
    <g id="_-e-Vector_Smart_Object" clip-path="url(#clip-path)">
        <g id="Group_16217">
            <g id="Group_16216" clip-path="url(#clip-path-2)">
                <path id="Rectangle_6022" d="M0 0H37.783V52.5H0z" class="cls-1" transform="translate(-3.742 -3.75)"/>
            </g>
        </g>
        <g id="Group_16219">
            <g id="Group_16218" clip-path="url(#clip-path-3)">
                <path id="Rectangle_6023" d="M0 0H29.093V29.093H0z" class="cls-1" transform="translate(.603 1.169)"/>
            </g>
        </g>
        <g id="Group_16221">
            <g id="Group_16220" clip-path="url(#clip-path-4)">
                <path id="Rectangle_6024" d="M0 0H12.938V15.214H0z" class="cls-1" transform="translate(3.875 5.149)"/>
            </g>
        </g>
        <g id="Group_16223">
            <g id="Group_16222" clip-path="url(#clip-path-5)">
                <path id="Rectangle_6025" d="M0 0H11.218V9.577H0z" class="cls-1" transform="translate(10.503 4.441)"/>
            </g>
        </g>
    </g>
</svg>
