<?xml version="1.0" encoding="utf-8"?>
<!-- Generator: Adobe Illustrator 22.1.0, SVG Export Plug-In . SVG Version: 6.00 Build 0)  -->
<svg version="1.1" id="Layer_1" xmlns="http://www.w3.org/2000/svg" xmlns:xlink="http://www.w3.org/1999/xlink" x="0px" y="0px"
	 viewBox="0 0 397.3 39.8" style="enable-background:new 0 0 397.3 39.8;" xml:space="preserve">
<style type="text/css">
	.st0{fill:#E31837;}
	.st1{fill:#012169;}
</style>
<g>
	<g>
		<g>
			<path class="st0" d="M366.7,38c0-0.9,0.7-1.6,1.7-1.6c0.9,0,1.7,0.7,1.7,1.6c0,0.9-0.7,1.6-1.7,1.6C367.4,39.7,366.7,39,366.7,38
				 M367,38c0,0.7,0.6,1.3,1.4,1.3c0.7,0,1.3-0.6,1.3-1.3s-0.6-1.3-1.3-1.3C367.6,36.8,367,37.3,367,38"/>
			<path class="st0" d="M369.2,39h-0.3l-0.5-0.8h-0.3V39h-0.3v-1.8h0.8c0.2,0,0.3,0,0.5,0.1c0.1,0.1,0.2,0.2,0.2,0.4
				c0,0.4-0.3,0.5-0.6,0.5L369.2,39z M368.3,37.9c0.3,0,0.6,0,0.6-0.3c0-0.2-0.2-0.3-0.5-0.3h-0.5v0.5L368.3,37.9L368.3,37.9z"/>
		</g>
		<g>
			<path class="st0" d="M360.5,39.7c11.6-9.9,27.9-19.6,36.8-23c-1.4-0.9-3.5-2.2-6-3.5c-11.5,3.8-25,12.3-37,21.8
				C356.3,36.4,358.5,38,360.5,39.7z"/>
			<path class="st1" d="M355.1,12.7c-1.7-0.8-3.6-1.6-5-2.3c-4.4,2.2-10,5.4-17.2,10.5c1.6,0.8,3.2,1.8,5,2.8
				C343.4,19.7,349,15.8,355.1,12.7z"/>
			<path class="st0" d="M365.5,7.9c-2.1-1.2-9.4-3.8-14.4-5c-1.5,0.6-3.6,1.4-5,2c1.8,0.5,8.6,2.3,14.4,5.2
				C362,9.4,364,8.5,365.5,7.9z"/>
			<path class="st1" d="M340.8,7.2c-6.5,3-13.2,7.1-16.9,9.4c1.3,0.6,2.6,1.1,4.5,2c8.2-5.5,14.5-8.9,17.1-10
				C343.6,8,341.9,7.5,340.8,7.2z"/>
			<path class="st0" d="M370.3,6.3c1.5-0.5,3.2-1,4.7-1.4c-4.3-1.8-9.7-3.7-14.5-4.9c-0.8,0.2-3.1,0.8-4.7,1.3
				C357.4,1.7,362.9,3,370.3,6.3z"/>
			<path class="st0" d="M343.1,27c1.7,1.1,3.7,2.5,5.5,3.7c12.1-9.4,24-16.6,37.1-20.7c-1.8-0.9-3.4-1.7-5.4-2.7
				C372.4,9.2,359,14.6,343.1,27z"/>
		</g>
	</g>
	<path class="st1" d="M0,36.8h8.8c4.5,0,6.6-2.3,6.6-5.6c0-2.6-1.4-4.4-4.3-5c2.5-0.6,3.7-2.2,3.7-4.4c0-2.9-2.1-5.2-6.6-5.2H0V36.8
		z M7.7,28.3c1.7,0,2.8,0.8,2.8,2.5c0,1.8-1.1,2.5-2.8,2.5H4.8v-5H7.7z M7.1,20.2c1.7,0,2.8,0.7,2.8,2.4c0,1.6-1.1,2.4-2.8,2.4H4.8
		v-4.7h2.3V20.2z M33.2,16.6h-5l-7.5,20.2h5l1.4-4.2h7.3l1.4,4.2h5.1L33.2,16.6z M30.7,21.4l2.4,7.4h-4.8L30.7,21.4z M66,16.6h-4.6
		v13.5l-8.6-13.5h-5.1v20.2h4.6V23.4l8.5,13.4h5.1L66,16.6L66,16.6z M87.1,36.8l-6.6-10.2v10.2h-4.9V16.6h4.9v9.7l6.3-9.7h5.5
		l-6.6,9.7l7.2,10.5H87.1z M110.3,26.7c0,4,2.4,6.5,5.6,6.5c3.1,0,5.6-2.5,5.6-6.5s-2.4-6.5-5.6-6.5
		C112.7,20.2,110.3,22.7,110.3,26.7L110.3,26.7z M105.1,26.7c0-5.9,4.2-10.5,10.8-10.5c6.5,0,10.7,4.6,10.8,10.5
		c0,5.9-4.2,10.5-10.8,10.5C109.3,37.3,105.1,32.6,105.1,26.7L105.1,26.7z M133.3,36.8h4.9v-8h6.4v-3.9h-6.4v-4.5h7.7l0.9-3.9h-13.5
		L133.3,36.8L133.3,36.8z M169.7,16.6h-5l-7.6,20.2h5l1.4-4.2h7.3l1.4,4.2h5.1L169.7,16.6z M167.2,21.4l2.4,7.4h-4.8L167.2,21.4z
		 M206.5,16.6h-5.7l-5.3,10.9l-5.2-10.9h-5.8v20.2h4.4V23.3l6.5,13.5l6.5-13.5v13.5h4.6V16.6z M216,36.8h13.8v-3.9h-8.9v-4.5h7v-3.7
		h-7v-4.2h8.1l0.9-3.9H216L216,36.8L216,36.8z M248.5,36.8h5.3l-5-8.6c2.7-0.8,4.1-2.7,4.1-5.5c0-3.7-2.2-6.1-7.2-6.1h-7.8v20.2h4.8
		v-8h1.3L248.5,36.8z M244.8,20.4c2,0,3.1,0.9,3.1,2.6s-1.1,2.6-3.1,2.6h-2.1v-5.2C242.7,20.4,244.8,20.4,244.8,20.4z M261.2,36.8
		h4.9v-1.6V16.6h-4.9V36.8z M290.3,31.4c-1.9,1.3-3.5,1.8-5.2,1.8c-3.8,0-6.4-2.6-6.4-6.4c0-3.9,2.6-6.4,6.3-6.4
		c1.7,0,3.3,0.5,5.1,1.8v-4.6c-1.7-0.9-3.6-1.3-5.7-1.3c-6.7,0-10.9,4.6-10.9,10.5c0,6,4.2,10.5,10.9,10.5c2.2,0,4.2-0.4,5.9-1.3
		L290.3,31.4L290.3,31.4z M308.2,16.6h-5l-7.5,20.2h5l1.4-4.2h7.3l1.4,4.2h5.1L308.2,16.6z M305.8,21.4l2.4,7.4h-4.8L305.8,21.4z"/>
</g>
</svg>
